<svg width="1440" height="800" viewBox="0 0 1440 800" fill="none" xmlns="http://www.w3.org/2000/svg">
<g clip-path="url(#clip0_11_83)">
<path opacity="0.031064" d="M468.532 412.176C468.424 384.067 425.555 352.46 407.242 336.161C371.033 303.929 333.37 274.165 296.064 243.924C258.759 213.683 221.344 183.527 185.766 150.326C162.666 128.776 135.521 104.503 119.856 73.7303C86.4802 8.15176 191.708 17.8899 218.967 16.4556C288.309 12.7913 367.843 14.4651 432.84 -19.6862C471.641 -40.0733 487.113 -74.2644 478.779 -124.095C476.092 -140.301 468.142 -158.95 474.878 -174.738C482.07 -191.6 498.616 -201.33 512.349 -207.855C562.438 -231.627 620.028 -234.382 673.024 -237.366C730.172 -240.646 787.855 -239.687 844.595 -239.94C868.659 -240.046 893.791 -250.596 916.702 -259.171C946.741 -270.41 976.419 -283.034 1006.21 -295.239C1071.74 -322.028 1139.27 -350.244 1208.61 -357.045C1252.03 -361.308 1299.48 -355.546 1333.21 -318.469C1350.14 -299.858 1359.01 -272.179 1368.8 -247.595C1380.66 -217.897 1392.04 -187.911 1404.65 -158.679C1445.31 -64.5285 1503.34 27.4665 1597.53 32.09C1611.78 32.7865 1625.78 30.5161 1639.96 30.0899C1648.99 29.8272 1657.03 32.4911 1660.39 44.0231C1668.83 72.9519 1642.3 118.619 1631.42 141.572C1607.6 191.815 1580.74 239.805 1555.58 289.034C1538.93 321.594 1510.12 366.091 1509.81 405.649C1509.54 440.897 1547.95 466.375 1568.87 483.739C1588.46 499.995 1623.97 522.741 1626.11 555.811C1627.15 571.844 1618.49 585.132 1609.44 595.445C1593.59 613.478 1575.32 626.199 1561.06 646.776C1537.67 680.532 1518.13 726.979 1521.31 772.465C1523.51 803.985 1538.24 824.625 1556.98 844.357C1564.86 852.652 1571.25 858.522 1571.67 871.994C1572.34 893.382 1565.48 916.014 1559.83 935.844C1539.6 1006.8 1510.88 1075.42 1478.92 1139.49C1462.95 1171.51 1445.69 1203.43 1424.52 1230.75C1410.65 1248.68 1391.95 1270.03 1370.81 1270C1346.31 1270 1320.4 1259.21 1296.59 1251.14C1252.13 1236.08 1208.2 1218.64 1164.46 1200.77C1063.27 1159.41 963.057 1114.69 863.777 1066.63C793.854 1032.71 722.444 998.749 656.701 953.667C643.655 944.622 631.548 934.294 620.56 922.837C608.573 910.595 593.697 905.121 578.617 901.04C485.006 875.702 382.45 895.155 288.451 907.352C264.591 910.442 240.733 913.551 216.805 915.712C196.236 917.574 171.611 922.91 151.621 914.892C112.229 899.112 146.665 840.952 161.223 817.257C212.479 733.816 278.613 663.22 339.908 591.15C369.052 556.827 398.418 522.595 425.978 486.33C440.335 467.475 468.627 436.818 468.532 412.176Z" stroke="white" stroke-width="5"/>
<path opacity="0.031064" d="M486.193 407.436C470.482 377.693 442.917 355.709 420.037 335.019C387.109 305.235 353.147 277.106 319.696 248.166C288.065 220.796 256.368 193.121 227.076 162.041C209.215 143.089 186.804 120.425 178.345 92.3941C159.993 31.6375 258.72 40.8551 283.093 39.2658C343.686 35.3328 412.378 34.4314 468.439 2.4409C503.443 -17.5338 517.823 -50.6625 510.357 -96.6576C507.774 -112.57 503.125 -126.156 509.013 -141.985C515.821 -160.305 531.478 -171.728 545.831 -179.791C590.793 -205.052 643.941 -210.419 692.68 -214.885C743.031 -219.498 795.491 -222.748 844.225 -219.376C863.708 -218.032 886.146 -225.661 905.431 -231.512C935.109 -240.525 964.477 -250.919 994.009 -260.591C1054.02 -280.256 1115.59 -299.199 1178.02 -301.355C1223.08 -302.912 1270.07 -294.472 1307.58 -261.853C1345.57 -228.775 1362.44 -177.499 1383.51 -128.755C1419.91 -44.4824 1469.06 57.98 1553.27 75.7851C1566.02 78.4894 1578.3 77.0223 1591.05 77.6861C1597.61 78.0227 1605.08 79.0879 1608.4 86.9778C1617.04 107.462 1593.38 144.916 1585.41 160.607C1563.42 203.967 1538.68 245.205 1515.62 287.732C1497.31 321.498 1474.11 359.021 1467.02 399.043C1458.43 447.612 1514.58 482.176 1534.33 516.377C1568.57 575.683 1503.71 609.475 1471.72 637.751C1435 670.214 1404.69 729.439 1437.61 779.666C1450.2 798.874 1465.7 810.316 1471.32 835.383C1480.12 874.581 1473.46 919.376 1466.32 958.128C1455.58 1016.37 1438.56 1073.99 1415.43 1126.64C1398.87 1164.33 1371.38 1223.44 1331.12 1219C1304.01 1216.04 1276.46 1205.24 1250.07 1195.68C1210.56 1181.39 1171.54 1165.09 1132.74 1148.15C1043.14 1109.2 954.55 1066.22 867.695 1018.96C808.435 986.704 643.127 854.875 630.688 850.174C593.601 836.162 551.434 838.629 513.198 840.8C462.34 843.686 411.728 851.157 361.161 858.081C337.091 861.359 312.899 865.366 288.706 866.98C271.486 868.128 248.864 869.111 233.775 856.894C204.33 833.058 237.133 778.521 250.703 755.447C292.265 684.711 344.841 623.454 394.142 560.822C418.335 530.068 442.894 499.37 464.854 466.152C473.71 452.74 495.905 425.807 486.193 407.436Z" stroke="white" stroke-width="5"/>
<path opacity="0.031064" d="M495.042 402.16C452.136 342.643 396.427 297.77 345.318 248.062C319.661 223.104 303.232 188.09 281.106 158.366C269.596 142.909 255.229 123.361 253.008 101.813C247.082 44.1708 336.066 51.9626 362.696 49.7766C414.19 45.5311 472.362 42.3119 519.077 12.8948C547.62 -5.08735 561.675 -34.6008 556.34 -73.3947C553.975 -90.6065 550.293 -105.228 556.34 -122.126C562.468 -139.245 575.234 -151.328 588.161 -160.385C625.31 -186.432 671.475 -194.76 713.3 -200.964C762.251 -208.182 811.748 -211.006 861.203 -209.402C904.476 -208.016 947.533 -223.597 989.781 -233.867C1045.74 -247.465 1102.73 -259.34 1160.01 -257.544C1205.23 -256.117 1250.82 -244.914 1289.49 -215.137C1328.78 -184.812 1352.4 -139.423 1373.7 -90.4438C1405.9 -16.3997 1446.02 82.82 1516.66 110.939C1526.93 115.036 1536.5 115.487 1547.1 116.201C1552.25 116.545 1558.9 116.652 1561.44 123.201C1567.59 138.971 1544.89 169.543 1538.55 180.192C1518.33 214.21 1496.41 246.691 1475.67 280.254C1456.33 311.587 1435.25 344.241 1423.22 380.959C1404.09 439.438 1465.25 473.632 1463.53 529.353C1462.47 563.949 1435.31 588.761 1413.81 605.921C1387.34 627.025 1349.22 640.901 1335.98 679.414C1326.1 708.101 1341.59 724.798 1353.52 746.563C1373.73 783.446 1375.1 833.441 1373 876.133C1370.17 933.825 1359.09 992.361 1340.22 1045.4C1331.69 1069.44 1321.22 1094.44 1305.81 1113.11C1291.37 1130.61 1277.71 1135.09 1258.41 1131.51C1199.33 1120.53 1139.69 1089.92 1083.04 1062.57C1011.87 1028.21 941.679 990.286 873.584 947.606C827.151 918.505 779.667 887.71 738.911 847.501C728.288 837.017 717.413 825.626 709.643 811.798C703.771 801.406 701.282 792.825 691.38 786.891C662.046 769.311 621.242 773.909 589.812 775.736C539.551 778.646 489.54 786.392 439.592 793.367C410.445 797.464 355.539 810.357 332.264 779.433C312.175 752.729 336.417 707.201 348.799 683.678C380.123 624.192 420.415 571.983 457.799 518.225C474.932 493.588 479.84 478.741 493.996 451.352C495.685 448.092 497.847 444.335 499.881 440.173C501.974 435.894 503.866 431.154 504.397 426.633C505.52 416.916 500.312 409.499 495.042 402.16Z" stroke="white" stroke-width="5"/>
<path opacity="0.031064" d="M511.619 406.037C471.972 353.411 424.206 310.176 381.643 260.927C362.559 238.846 343.286 215.683 328.745 188.746C320.923 174.261 312.621 156.029 314.774 138.022C320.963 86.3472 394.15 91.0129 423.717 87.9882C467.65 83.5456 518.123 79.0667 556.973 51.1995C582.421 32.9468 591.964 5.99851 587.213 -28.7643C582.112 -66.0515 593.516 -93.1198 619.468 -113.921C652.005 -139.98 693.082 -150.599 730.856 -158.148C776.183 -167.178 822.364 -171.195 868.573 -170.126C913.413 -169.076 956.858 -178.247 1001.4 -184.209C1060.47 -192.108 1121.42 -196.005 1179.82 -179.813C1230.66 -165.713 1276.58 -134.643 1311 -86.5936C1346.97 -36.4442 1364.76 26.7374 1393.97 82.2178C1412.18 116.823 1437.57 162.6 1471.59 176.052C1482.94 180.539 1503.63 174.486 1494.56 196.554C1489.38 209.178 1479.69 220.252 1472.02 230.57C1459.64 247.245 1446.86 263.459 1434.27 279.904C1407.45 314.964 1378.72 350.77 1358.62 392.275C1333.28 444.536 1370.94 484.765 1366.35 537.76C1363.88 566.279 1347.64 589.04 1330.44 606.922C1319.32 618.504 1307.15 628.532 1294.73 637.894C1281.76 647.674 1266.4 655.124 1255.09 667.764C1238.97 685.751 1245.97 707.045 1248.99 730.298C1254.32 771.273 1255.48 812.682 1252.47 853.891C1248.79 904.409 1240.15 956.371 1221.96 1002.28C1214.88 1020.15 1205.92 1039.1 1192.61 1051.08C1179.3 1063.06 1165.53 1062.25 1150.28 1058.64C1105.03 1047.97 1059.88 1023.17 1016.96 999.645C963.246 970.208 910.58 937.311 860.29 899.88C825.576 874.043 790.742 846.13 761.699 811.102C753.252 800.906 745.216 789.989 738.717 777.8C734.255 769.44 731.863 758.656 725.399 752.373C705.172 732.761 664.564 738.617 640.843 739.758C593.502 742.03 546.906 752.832 499.624 755.457C473.821 756.892 433.408 760.5 414.457 733.687C396.634 708.481 412.777 668.782 423.428 644.496C444.36 596.742 472.483 554.196 497.689 509.805C508.051 491.538 519.408 472.427 526.121 451.568C532.084 432.984 521.778 419.53 511.619 406.037Z" stroke="white" stroke-width="5"/>
<path opacity="0.031064" d="M521.373 406.899C489.815 360.589 451.772 319.48 419.986 272.414C401.38 244.853 369.339 198.519 383.727 159.662C399.513 116.965 454.538 115.801 486.344 112.361C524.2 108.265 568.653 102.671 601.053 76.0113C611.298 67.5833 620.028 56.4276 623.728 41.7332C627.689 26.0083 623.359 12.2474 622.795 -3.49556C621.614 -36.5192 637.767 -63.0321 659.147 -81.2418C689.362 -106.985 727.144 -119.156 762.832 -127.641C803.034 -137.186 844.224 -141.914 885.551 -141.729C924.907 -141.564 963.849 -142.629 1003.26 -143.859C1054.78 -145.495 1107.03 -142.852 1157.01 -126.151C1206.25 -109.688 1251.01 -78.8345 1286.18 -33.4507C1320.48 10.8388 1343.63 64.9667 1363.89 120.105C1375.4 151.401 1394.83 198.17 1422.27 213.978C1434.47 221.022 1446.44 220.538 1433.47 238.836C1417.14 261.877 1395.12 280.363 1376.2 300.069C1348.9 328.507 1320.92 357.502 1298.01 391.312C1283.38 412.901 1276.87 433.853 1277.86 461.808C1278.65 483.107 1282.18 504.178 1280.4 525.556C1276.21 575.731 1243.82 610.139 1215.19 642.181C1196.78 662.79 1179.95 678.509 1170.47 707.821C1159.26 742.468 1154.55 780.16 1147.06 816.132C1138.83 855.636 1129.33 896.728 1111.36 931.521C1095.36 962.502 1075.9 976.389 1046.8 968.038C1001.39 955.032 956.625 922.991 916.323 893.349C875.288 863.193 834.96 829.283 800.958 787.83C782.6 765.445 770.072 739.162 753.768 715.114C733.266 684.924 686.871 696.357 659.303 698.913C613.538 703.156 469.533 734.902 482.821 632.078C488.367 589.159 510.208 549.55 526.182 511.677C532.802 495.96 542.384 477.097 543.881 459.085C545.515 439.473 530.861 420.842 521.373 406.899Z" stroke="white" stroke-width="5"/>
<path opacity="0.031064" d="M538.035 410.832C513.919 368.866 485.059 329.22 464.366 283.893C450.941 254.539 437.762 215.32 455.077 184.26C474.621 149.21 517.719 141.039 549.386 136.574C582.017 131.977 620.961 128.108 647.628 101.532C656.111 93.0669 663.106 81.6521 664.409 67.9823C665.664 54.8705 662.119 41.7587 663.294 28.4092C665.925 -1.56698 680.818 -26.2624 700.019 -44.1802C756.822 -97.1759 841.366 -108.96 909.9 -110.345C944.201 -111.034 979.51 -107.418 1014.04 -104.831C1058.84 -101.473 1103.71 -94.2589 1146.44 -76.8775C1237.28 -39.9339 1298.17 41.9981 1340.7 143.95C1354.09 176.041 1364.32 210.762 1385.3 236.552C1396.11 249.868 1393.74 259.432 1382.7 271.576C1365.41 290.556 1344.33 305.06 1325.15 320.901C1297.86 343.427 1270 366.292 1245.86 393.276C1229.24 411.879 1217.42 429.803 1213.84 457.695C1211.28 477.584 1211.89 497.851 1210.35 517.862C1207.42 555.881 1197.4 593.608 1179.66 625.141C1165.57 650.134 1148.79 672.85 1131.45 694.51C1108.8 722.514 1089.12 752.782 1072.71 784.831C1050.01 829.133 1018.12 910.851 964.65 889.225C905.673 865.358 850.406 804.724 812.567 745.976C799.862 726.251 789.431 702.061 772.296 687.516C746.639 665.775 720.614 666.537 690.102 666.627C644.419 666.75 545.017 678.853 543.943 595.332C543.521 562.241 555.252 530.953 560.871 499.125C567.204 463.475 554.506 439.432 538.035 410.832Z" stroke="white" stroke-width="5"/>
<path opacity="0.031064" d="M555.997 414.574C532.143 359.878 478.645 270.007 519.335 209.182C540.825 177.035 578.834 164.96 610.721 157.763C636.378 151.941 667.326 149.755 686.714 125.072C700.964 106.925 694.635 80.5148 700.098 57.7979C706.874 29.6319 722.427 6.59174 741.539 -10.7277C794.948 -59.1335 869.21 -73.9897 933.456 -77.1503C1000.18 -80.422 1073.71 -65.107 1136.5 -35.6314C1214.79 1.13315 1273.45 70.7375 1314.46 158.89C1322.02 175.162 1328.91 191.859 1336.18 208.328C1341.06 219.374 1348.3 230.057 1352.15 241.68C1358.55 261.052 1351 276.895 1338.91 289.52C1321.5 307.7 1300.11 320.639 1280.27 334.282C1253.14 352.953 1225.4 371.289 1200.15 393.195C1183.19 407.935 1165.43 423.813 1159.36 449.388C1155.22 466.831 1154.36 485.305 1154.5 503.372C1154.83 542.106 1153.16 573.429 1138.34 608.904C1113.97 667.145 1076.48 719.514 1036.88 763.088C1005.8 797.286 956.625 850.409 911.338 827.545C870.708 807.072 846.945 758.068 820.169 718.449C807.156 699.189 792.534 681.6 775.358 667.898C753.7 650.627 733.312 643.38 707.651 640.554C664.463 635.796 599.34 634.56 585.995 571.339C581.065 548.007 583.88 523.844 581.294 500.209C577.91 468.957 568.032 442.163 555.997 414.574Z" stroke="white" stroke-width="5"/>
<path opacity="0.031064" d="M580.8 416.599C563.814 356.752 541.5 281.329 582.522 228.139C602.394 202.372 630.347 187.967 657.396 177.203C676.768 169.488 707.536 167.215 719.415 143.5C728.139 126.046 729.348 101.967 737.237 83.2675C747.624 58.7899 763.562 37.0636 783.792 19.8057C834.013 -23.3892 899.413 -40.0827 959.053 -44.8637C1088.65 -55.2324 1220.51 27.3643 1289.86 163.257C1310.54 203.765 1337.23 246.88 1303.81 288.263C1267.33 333.41 1212.37 354.558 1168.82 386.642C1152.19 398.889 1130.98 413.614 1121.7 435.79C1116.12 449.12 1115.73 465.846 1115.48 480.519C1114.81 517.894 1112.26 551.508 1099.96 586.382C1080.93 640.279 1050.61 689.999 1016.24 730.729C986.268 766.244 943.521 807.98 899.999 782.377C866.619 762.702 845.456 720.939 819.523 690.152C790.661 655.867 754.975 632.765 715.78 621.479C677.654 610.531 635.836 603.14 615.744 556.607C608.851 540.645 601.649 519.981 599.065 502.311C594.932 473.358 588.83 444.721 580.804 416.598L580.8 416.599Z" stroke="white" stroke-width="5"/>
<path opacity="0.031064" d="M608.457 417.02C600.595 356.587 599.726 293.572 636.236 245.943C653.275 223.723 674.815 207.936 696.596 193.633C712.62 183.109 729.171 174.233 741.141 156.979C752.23 141.004 760.659 122.453 771.361 106.062C784.947 84.9324 801.845 66.1266 821.409 50.3655C869.089 12.424 927.102 -5.32159 982.601 -11.4776C1009.46 -14.4695 1038.61 -16.027 1065.3 -7.87095C1091.07 -0.0024804 1116.55 12.4404 1140.25 26.947C1190.62 57.7595 1234.27 102.881 1265.93 159.928C1287.63 199.058 1299.36 237.106 1271.26 276.803C1239.58 321.547 1189.91 346.235 1148.96 375.272C1120.87 395.189 1089.4 414.713 1084.16 457.04C1079.98 490.719 1076.58 522.686 1065.78 554.521C1049.7 601.479 1026.05 644.015 996.239 679.608C968.98 712.037 934.489 739.551 895.496 722.233C864.595 708.488 840.626 677.693 813.631 655.68C783.549 631.091 750.497 617.533 715.691 606.633C684.412 596.797 654.961 581.682 634.744 549.593C630.331 542.885 626.429 535.854 623.071 528.561C619.001 519.206 619.317 509.922 618.518 499.431C616.437 471.739 612.017 444.371 608.457 417.02Z" stroke="white" stroke-width="5"/>
<path opacity="0.031064" d="M638.953 412.084C639.625 354.682 650.936 300.433 681.916 255.698C695.161 236.561 710.977 220.799 725.552 203.265C737.287 189.132 748.377 175.994 761.871 164.342C793.88 136.757 819.893 101.06 853.911 76.4983C899.319 43.6598 951.339 25.5078 1002.95 18.2506C1028.15 14.7042 1054.18 13.4644 1079.68 17.4706C1101.58 20.9102 1122.55 32.9871 1142 45.3378C1180.14 69.54 1217.17 103.939 1241.93 147.458C1296.51 243.403 1188.89 313.163 1133.65 354.014C1108.25 372.806 1069.43 394.566 1059.03 431.793C1051.59 458.384 1047.06 485.427 1037.48 511.197C1011.75 580.404 959.509 661.802 889.891 650.966C860.11 646.336 832.963 627.527 805.154 614.9C776.522 601.896 746.973 594.648 717.214 586.693C689.405 579.264 667.233 568.69 649.268 540.341C640.682 526.806 641.44 510.597 640.675 493.989C639.422 466.707 638.65 439.271 638.953 412.084Z" stroke="white" stroke-width="5"/>
<path opacity="0.031064" d="M666.72 404.728C677.899 318.085 719.438 223.494 780.513 173.176C852.352 113.987 930.176 64.1397 1016.01 49.8147C1055.8 43.1706 1099.39 39.9023 1136.94 61.6282C1165.52 78.1529 1198.71 102.855 1214.44 137.59C1252.91 222.553 1167.33 290.191 1118.57 329.501C1092.32 350.662 1058.91 371.283 1039.12 402.184C1027.64 420.098 1021.78 443.802 1012.51 463.48C984.426 523.109 938.192 571.205 880.601 579.808C853.979 583.781 827.16 578.868 800.726 574.958C773.675 570.96 746.285 568.787 719.404 563.214C697.945 558.758 672.653 551.212 664.75 523.186C654.785 487.862 662.156 440.111 666.72 404.728Z" stroke="white" stroke-width="5"/>
<path opacity="0.031064" d="M693.949 390.809C710.259 309.349 744.797 229.892 802.863 181.261C833.652 155.475 869.391 137.674 903.71 120.087C942.609 100.155 983.255 84.6828 1024.75 77.0081C1076.43 67.4478 1160.13 58.8311 1187.14 130.697C1213.94 202.03 1146.22 265.164 1106.17 301.142C1080.49 324.191 1053.01 345.344 1028.48 370.537C1015.18 384.197 1004.93 399.983 993.673 416.002C962.557 460.39 918.208 495.535 872.999 514.294C829.183 532.484 774.975 540.539 728.723 534.526C708.765 531.938 694.501 523.227 688.465 498.451C680.104 464.004 687.207 424.459 693.949 390.809Z" stroke="white" stroke-width="5"/>
<path opacity="0.031064" d="M721.005 368.869C737.208 297.148 772.152 231.645 823.131 188.596C880.274 140.341 953.853 113.527 1021.49 99.8916C1057.44 92.649 1135.34 73.0127 1153.66 129.212C1171.98 185.412 1119.01 240.795 1088.53 271.285C1051.52 308.232 1011.62 343.905 971.779 377.055C937.167 405.878 900.223 435.343 862.719 457.603C841.883 470.083 819.825 480.405 796.89 488.406C780.117 494.186 758.789 502.81 741.203 498.506C696.851 487.639 713.256 403.163 721.005 368.869Z" stroke="white" stroke-width="5"/>
<path opacity="0.031064" d="M754.404 347.391C789.954 211.757 902.59 145.054 1011.04 121.799C1036.24 116.401 1106.88 96.9423 1120.98 138.375C1134.62 178.547 1091.21 226.188 1070.89 248.76C1007.9 318.705 930.098 370.561 856.364 421.936C833.35 437.972 791.846 472.772 763.296 456.719C732.302 439.254 747.039 375.517 754.404 347.391Z" stroke="white" stroke-width="5"/>
<path opacity="0.031064" d="M790.819 321.284C821.736 221.401 911.665 164.114 994.336 145.224C1014.59 140.603 1066.02 126.214 1081.35 154.092C1095.54 179.876 1061.67 217.238 1049.01 232.083C1020.79 265.145 987.362 292.378 954.335 318.556C923.796 342.776 892.921 367.601 860.79 388.084C843.863 398.864 812.119 421.871 792.884 405.222C772.171 387.316 783.955 343.465 790.819 321.284Z" stroke="white" stroke-width="5"/>
<path opacity="0.031064" d="M830.948 292.104C854.513 226.875 917.623 184.518 973.294 170.442C988.275 166.659 1020.65 156.858 1033.29 174.278C1044.93 190.321 1026.17 213.84 1017.85 224.702C980.974 272.846 926.965 315.852 877.476 342.265C865.035 348.906 842.666 361.939 829.872 348.536C816.741 334.773 825.541 307.083 830.948 292.104Z" stroke="white" stroke-width="5"/>
<path opacity="0.031064" d="M873.515 264.703C886.8 232.313 921.497 207.879 950.245 200.093C970.478 194.619 994.8 199.348 977.168 227.543C959.647 255.529 927.153 281.081 899.602 292.409C878.586 301.049 862.115 292.526 873.515 264.703Z" stroke="white" stroke-width="5"/>
<path opacity="0.031064" d="M-203.253 489.041C-204.106 425.046 -231.967 358.545 -218.207 293.341C-206.907 239.788 -150.023 235.317 -115.893 211.057C-88.7722 191.782 -73.3857 157.637 -58.7241 124.874C-45.5512 95.462 -33.7118 65.1651 -19.8312 36.2354C-10.8461 17.5333 4.58437 -19.1911 24.0709 -19.854C42.7257 -20.4929 59.8321 8.12772 70.6692 25.0427C84.8021 47.0941 97.3242 70.6022 111.044 93.0057C134.165 130.795 161.902 158.766 193.672 185.238C229.823 215.367 266.568 244.461 303.91 272.52C331.403 293.245 359.084 313.813 385.511 336.585C402.084 350.875 438.666 377.681 438.838 404.022C438.919 416.593 429.163 430.511 422.584 440.559C411.453 457.566 398.765 473.115 386.038 488.332C362.334 516.671 337.624 543.725 313.185 571.107C281.456 606.641 251.153 641.593 223.264 681.941C194.429 723.698 166.883 766.833 138.772 809.382C119.735 838.205 100.717 870.573 73.2582 888.26C38.865 910.368 10.6345 887.055 -24.1481 886.786C-54.0688 886.548 -51.8622 801.915 -55.6651 778.382C-59.481 754.562 -67.891 732.389 -71.148 708.515C-75.2118 678.709 -75.2652 648.216 -76.2648 618.092C-77.4779 581.242 -77.9566 546.166 -110.223 532.115C-128.583 524.131 -148.441 522.453 -167.45 517.67C-179.762 514.563 -202.986 509.258 -203.253 489.041Z" stroke="white" stroke-width="5"/>
<path opacity="0.031064" d="M-188.543 477.658C-191.678 424.013 -210.207 355.362 -192.686 299.991C-177.716 252.674 -130.899 246.539 -99.3751 221.684C-73.3511 201.181 -61.7658 167.633 -48.7583 134.675C-38.3224 108.236 -28.2007 81.5426 -16.3545 55.95C-7.62423 37.0886 5.70714 5.24526 23.86 1.34159C40.1824 -2.16862 57.6806 25.9431 66.8414 40.2457C80.2055 61.1244 91.6376 83.7991 103.443 105.998C124.188 144.991 145.435 180.057 175.79 208.702C206.287 237.465 239.652 258.983 273.372 281.368C299.751 298.885 325.997 316.91 351.061 337.13C369.733 352.188 396.577 371.459 405.119 398.309C411.887 419.548 377.584 454.795 367.47 467.234C346.65 492.812 324.589 516.827 302.487 540.685C275.543 569.765 247.739 595.195 223.944 628.368C181.386 687.673 145.809 761.53 91.0504 805.611C58.0233 832.192 21.2676 838.994 -15.4686 835.016C-30.0191 833.442 -33.5077 808.372 -35.3408 793.75C-38.3904 769.46 -38.7727 744.751 -41.1094 720.363C-43.3057 697.532 -48.1806 675.841 -52.1101 653.454C-56.0861 630.771 -57.201 607.531 -60.1292 584.692C-61.9424 570.514 -63.7358 554.013 -71.6663 542.615C-79.8731 530.814 -93.4121 525.87 -105.244 522.112C-127.476 515.126 -186.327 515.512 -188.543 477.658Z" stroke="white" stroke-width="5"/>
<path opacity="0.031064" d="M-169.611 455.203C-174.887 405.966 -182.268 344.639 -160.782 299.275C-143.218 262.182 -105.759 254.181 -79.0023 230.013C-56.7486 209.914 -48.342 177.949 -37.3008 148.245C-28.2373 123.879 -19.1256 99.4083 -8.13953 76.2221C0.192149 58.6393 10.9294 34.7971 27.4722 28.6635C41.6155 23.4228 57.5953 46.9025 65.4354 58.5893C78.7865 78.5072 89.6719 100.825 100.482 122.847C118.165 158.886 134.438 197.372 159.612 226.688C184.069 255.131 213.123 271.921 242.721 290.799C265.391 305.263 287.922 320.283 309.281 337.531C325.683 350.767 346.006 366.449 354.555 388.472C361.946 407.464 342.971 429.945 333.49 443.345C317.835 465.457 300.458 485.743 283.329 506.11C264.838 528.084 244.358 548.354 226.465 570.868C188.84 618.242 158.776 670.702 112.399 707.001C82.3665 730.515 41.9495 751.874 6.44543 748.034C-19.0868 745.266 -17.4079 676.291 -19.86 654.251C-23.892 618.216 -31.6786 580.354 -44.0449 547.161C-54.6685 518.716 -79.9123 509.946 -103.134 503.568C-117.684 499.562 -132.923 497.397 -146.997 491.209C-163.288 484.032 -167.4 475.842 -169.611 455.203Z" stroke="white" stroke-width="5"/>
<path opacity="0.031064" d="M-151.951 432.124C-155.091 390.495 -154.386 341.27 -134.043 305.26C-116.214 273.719 -84.4735 265.415 -61.8978 240.568C-44.2814 221.183 -37.36 189.576 -27.8841 163.942C-16.3039 132.602 -0.0744968 74.7064 29.1367 62.9101C56.3074 51.9438 84.7308 121.993 94.5709 142.88C110.146 175.942 123.172 212.197 142.062 242.728C158.329 269.012 180.125 283.542 203.258 299.159C232.756 319.102 277.535 342.752 293.306 381.616C305.061 410.579 266.832 453.635 253.787 473.702C240.135 494.664 229.852 519.511 215.768 539.734C193.532 571.648 157.507 597.34 127.762 616.947C98.8405 636.019 61.289 657.129 28.485 655.87C6.9218 655.049 2.8227 614.406 -1.77406 594.553C-8.36484 566.33 -17.127 541.04 -35.9505 521.844C-55.109 502.3 -77.6916 493.096 -101.431 485.038C-113.617 480.931 -127.519 477.727 -138.418 469.431C-150.465 460.404 -150.741 448.124 -151.951 432.124Z" stroke="white" stroke-width="5"/>
<path opacity="0.031064" d="M-130.435 408.129C-130.263 372.165 -123.524 333.815 -103.549 306.075C-86.9128 282.968 -60.8708 275.244 -44.9445 251.623C-32.3294 232.922 -25.9082 206.669 -17.4621 184.952C-7.13033 158.338 7.47356 111.848 33.1634 102.611C58.2332 93.6202 80.4068 144.828 90.0187 165.09C104.095 194.8 115.491 226.293 129.694 255.923C140.822 279.169 154.428 294.15 172.548 309.131C193.814 326.729 223.492 346.223 234.851 375.34C243.043 396.42 223.214 430.099 216.016 448.673C211.19 461.146 206.772 473.814 204.345 487.331C202.451 497.859 202.267 507.602 196.791 516.641C183.003 539.378 152.771 542.348 132.26 549.842C105.018 559.789 76.1139 571.094 47.6053 573.252C30.0837 574.6 21.1416 554.892 11.1413 541.03C-0.676449 524.642 -17.407 512.857 -32.0203 500.489C-51.3062 484.142 -72.2925 473.971 -94.0046 463.565C-103.798 458.865 -115.303 454.255 -122.888 444.913C-130.811 435.225 -130.496 421.109 -130.435 408.129Z" stroke="white" stroke-width="5"/>
<path opacity="0.031064" d="M-107.837 386.779C-104.374 356.576 -93.5847 327.706 -75.3604 306.354C-61.3901 289.961 -42.837 280.731 -31.6227 261.035C-21.1722 242.674 -13.8952 221.797 -5.26648 202.167C3.8659 181.413 17.4332 146.724 38.4953 141.077C61.195 134.995 78.6815 169.986 88.364 189.378C100.596 213.887 109.888 240.254 120.823 265.606C128.791 284.06 139.285 301.316 152.003 316.881C165.041 332.79 182.721 348.033 189.318 369.905C195.149 389.282 184.238 412.724 182.312 432.372C180.252 453.363 183.862 475.412 172.442 493.436C148.892 530.605 89.7846 523.712 55.9939 524.507C22.6524 525.327 -4.1541 502.581 -31.1371 480.941C-48.9594 466.654 -67.5177 454.556 -85.7902 441.245C-104.414 427.664 -110.883 413.36 -107.837 386.779Z" stroke="white" stroke-width="5"/>
<path opacity="0.031064" d="M-86.8401 369.486C-76.6005 325.728 -44.622 302.471 -21.7614 269.403C-3.05667 242.332 10.9687 186.269 42.4675 178.852C78.2337 170.435 99.6436 244.717 112.079 273.381C125.879 305.17 150.452 331.029 160.671 364.679C166.045 382.341 161.428 398.819 158.57 416.476C155.435 435.871 153.077 455.685 142.255 471.289C120.951 501.995 79.3487 501.781 49.3806 502.626C18.3619 503.504 -9.08006 482.462 -33.7901 461.461C-60.0043 439.221 -97.3268 414.363 -86.8401 369.486Z" stroke="white" stroke-width="5"/>
<path opacity="0.031064" d="M-69.6951 357.626C-58.158 326.45 -33.9138 301.104 -14.2396 277.179C2.18268 257.232 19.8456 217.077 44.8795 214.215C74.3051 210.841 92.1385 253.716 103.717 280.012C115.113 305.841 131.533 333.121 137.843 361.474C144.422 391.011 126.9 430.794 110.189 451.695C91.5539 474.999 61.0607 483.608 34.8955 482.68C7.50008 481.733 -17.6379 462.476 -38.3857 442.493C-60.5688 421.136 -83.1083 393.817 -69.6951 357.626Z" stroke="white" stroke-width="5"/>
<path opacity="0.031064" d="M-53.7779 351.756C-42.7573 325.826 -23.654 303.89 -6.04012 284.325C7.55384 269.219 27.6112 243.533 47.2239 242.904C68.7982 242.207 87.0819 263.769 95.6581 285.867C104.109 307.664 113.019 334.992 114.283 358.904C117.034 410.977 61.0779 469.31 19.0608 464.561C-20.7749 460.055 -75.7509 403.425 -53.7779 351.756Z" stroke="white" stroke-width="5"/>
<path opacity="0.031064" d="M-39.0618 348.898C-23.8578 315.113 13.0712 266.948 47.2599 265.804C86.5024 264.497 96.3546 318.094 91.2395 356.938C86.0427 396.58 40.7981 453.961 4.72148 446.208C-30.4899 438.642 -57.0803 388.965 -39.0618 348.898Z" stroke="white" stroke-width="5"/>
<path opacity="0.031064" d="M-23.5242 343.434C-10.6526 315.147 16.816 279.814 45.4659 278.742C79.6036 277.478 78.9579 322.733 71.2177 350.892C63.1693 380.135 27.716 430.084 -2.17373 422.198C-31.2386 414.5 -35.8595 370.547 -23.5242 343.434Z" stroke="white" stroke-width="5"/>
<path opacity="0.031064" d="M-9.99026 340.178C-1.49327 319.994 19.7686 294.483 39.9869 293.665C64.6967 292.686 59.8924 328.577 53.5083 345.9C45.9196 366.513 20.484 402.329 -0.861314 396.526C-21.8778 390.813 -17.0003 356.81 -9.99026 340.178Z" stroke="white" stroke-width="5"/>
</g>
<defs>
<clipPath id="clip0_11_83">
<rect width="1440" height="800" fill="white"/>
</clipPath>
</defs>
</svg>
