<svg width="24" height="24" viewBox="0 0 24 24" fill="none" xmlns="http://www.w3.org/2000/svg">
<path fill-rule="evenodd" clip-rule="evenodd" d="M7.3392 10.0848L12 5.424L16.6608 10.0896L19.3728 7.3776L12 0L4.6272 7.3728L7.3392 10.0848ZM0 12L2.712 9.288L5.424 12L2.712 14.712L0 12ZM7.3392 13.9152L12 18.576L16.6608 13.9104L19.3776 16.6224L12 24L4.6272 16.6272L4.6224 16.6224L7.3392 13.9152ZM18.576 12L21.288 9.288L24 12L21.288 14.712L18.576 12Z" fill="#F3BA2F"/>
<path fill-rule="evenodd" clip-rule="evenodd" d="M15.0232 12L11.9992 8.96642L9.76238 11.208L9.50318 11.4672L8.97038 12L8.96558 12.0048L8.97038 12.0096L11.9944 15.0336L15.0232 12.0048V12Z" fill="#F3BA2F"/>
</svg>
