<svg width="120" height="36" viewBox="0 0 120 36" fill="none" xmlns="http://www.w3.org/2000/svg">
<g clip-path="url(#clip0_7_46)">
<path d="M107.199 22.125H115.373L106.986 33.96V35.7536H119.907V32.8029H111.333L119.907 20.661V19.197H107.199V22.125Z" fill="white"/>
<path d="M102.888 32.6832H93.6032V28.9507H102.555V26.042H93.6032V22.2187H102.888V19.197H90.5104V35.7536H102.888V32.6832Z" fill="white"/>
<path d="M85.4877 32.6832H76.2059V28.9507H85.1581V26.042H76.2059V22.2187H85.4877V19.197H73.1099V35.7536H85.4877V32.6832Z" fill="white"/>
<path d="M60.2475 35.7536H63.3662V22.0313H68.6083V19.197H55.0024V22.0313H60.2475V35.7536Z" fill="white"/>
<path d="M47.3365 29.4645L39.2344 19.1972H36.7069V35.7536H39.8256V24.591L48.516 35.7536H50.4552V11.8642L47.3365 13.4478V29.4645Z" fill="white"/>
<path d="M30.9058 32.6832H21.6242V28.9507H30.5762V26.042H21.6242V22.2187H30.9058V19.197H18.5281V35.7536H30.9058V32.6832Z" fill="white"/>
<path d="M7.86299 22.1027C8.29733 22.0948 8.72896 22.1728 9.13309 22.3321C9.46845 22.47 9.7696 22.6796 10.0154 22.9462C10.2421 23.1926 10.4179 23.4815 10.5325 23.7962C10.6415 24.1078 10.6973 24.4356 10.6973 24.7657C10.6968 25.0956 10.6422 25.4231 10.5357 25.7353C10.4215 26.0634 10.238 26.3632 9.99765 26.6141C9.75731 26.8651 9.46573 27.0613 9.14277 27.1896C8.73069 27.3483 8.29157 27.4253 7.85005 27.4157H3.11547V22.1027H7.86299ZM14.6498 35.5437L9.64371 29.8979C10.3455 29.7661 11.017 29.5067 11.6248 29.132C12.1346 28.8157 12.5745 28.3989 12.9175 27.9069C13.2384 27.4411 13.4757 26.9227 13.6188 26.3752C13.7642 25.8247 13.8359 25.2575 13.8321 24.6881C13.8364 23.9816 13.7059 23.2807 13.4475 22.623C13.1942 21.9689 12.8092 21.3738 12.3164 20.8746C11.7867 20.3443 11.1514 19.9314 10.4517 19.6627C9.62661 19.347 8.74957 19.1891 7.86621 19.1973C6.55411 19.2102 5.24307 19.2102 3.93309 19.1973H0V35.7539H3.11869V30.2275H6.11781L10.9364 35.7539H14.6433V35.5501L14.6498 35.5437Z" fill="white"/>
<path d="M63.8314 0L72.6384 4.94467L81.445 0L108.566 15.2315L81.445 3.95896L75.3722 6.48301L90.9562 15.2315L63.8314 3.95896L36.7069 15.2315L47.3365 9.26237V5.65243H50.4552V7.51072L63.8314 0Z" fill="#FEB247"/>
</g>
<defs>
<clipPath id="clip0_7_46">
<rect width="120" height="36" fill="white"/>
</clipPath>
</defs>
</svg>
