<svg width="18" height="18" viewBox="0 0 18 18" fill="none" xmlns="http://www.w3.org/2000/svg">
<path fill-rule="evenodd" clip-rule="evenodd" d="M2.0625 8.25C2.0625 4.83274 4.83274 2.0625 8.25 2.0625C11.6673 2.0625 14.4375 4.83274 14.4375 8.25C14.4375 11.6673 11.6673 14.4375 8.25 14.4375C4.83274 14.4375 2.0625 11.6673 2.0625 8.25ZM8.25 0.9375C4.21142 0.9375 0.9375 4.21142 0.9375 8.25C0.9375 12.2886 4.21142 15.5625 8.25 15.5625C10.0668 15.5625 11.7289 14.8999 13.0078 13.8032L15.3523 16.1477C15.572 16.3674 15.9282 16.3674 16.1478 16.1477C16.3675 15.928 16.3675 15.5719 16.1478 15.3522L13.8033 13.0077C14.9 11.7288 15.5625 10.0668 15.5625 8.25C15.5625 4.21142 12.2886 0.9375 8.25 0.9375Z" fill="#0E152C"/>
</svg>
